<svg width="466" height="489" viewBox="0 0 466 489" fill="none" xmlns="http://www.w3.org/2000/svg">
<g id="profile 1">
<path id="right eyebrow" d="M251.892 161.601L260.926 153.206L298.072 159.735" stroke="black"/>
<path id="left eyebrow" d="M222.504 161.601L213.059 153.206L174.225 159.735" stroke="black"/>
<path id="right eye" d="M280.23 166.848C280.23 171.745 277.18 175.242 273.932 175.242C270.685 175.242 267.635 171.745 267.635 166.848C267.635 161.951 270.685 158.453 273.932 158.453C277.18 158.453 280.23 161.951 280.23 166.848Z" stroke="black"/>
<path id="left eye" d="M204.662 166.848C204.662 171.745 201.613 175.242 198.365 175.242C195.117 175.242 192.068 171.745 192.068 166.848C192.068 161.951 195.117 158.453 198.365 158.453C201.613 158.453 204.662 161.951 204.662 166.848Z" stroke="black"/>
<g id="face">
<path id="Vector" d="M152.185 160.552L145.887 92.3434L178.423 46.1717L243.496 60.8627L297.023 46.1717L323.261 92.3434L319.063 160.552L315.914 242.401L259.239 289.622L243.496 294.869H227.752L212.009 289.622L158.482 242.401L152.185 160.552Z" stroke="black"/>
<path id="Vector_2" d="M137.491 107.034L143.845 84.1643C146.591 74.281 150.786 64.859 156.294 56.205C165.315 42.0326 177.639 30.2597 192.211 21.8961L216.069 8.20195C223.036 4.203 230.93 2.09872 238.964 2.09872C246.755 2.09872 254.419 4.07796 261.235 7.85069L288.815 23.115C302.403 30.6351 313.566 41.8679 321.003 55.4992C325.963 64.5887 329.149 74.537 330.396 84.8155L332.321 100.708C332.577 102.813 332.485 104.945 332.048 107.019L321.891 155.252C321.322 157.961 324.527 159.838 326.611 158.015C327.697 157.064 329.321 157.064 330.407 158.015L334.038 161.191C335.86 162.785 336.905 165.088 336.905 167.509V194.511C336.905 197.684 335.965 200.787 334.206 203.427L323.507 219.471C321.93 221.836 318.427 221.752 316.964 219.315" stroke="black"/>
<path id="Vector_3" d="M137.491 105.985L144.565 144.883C145.147 148.088 142.014 150.705 138.964 149.561C138.014 149.205 136.968 149.205 136.018 149.561L133.277 150.589C130.579 151.6 128.335 153.548 126.956 156.077L125.999 157.831C123.938 161.608 123.353 166.016 124.358 170.199L127.573 183.596C128.584 187.805 130.104 191.875 132.102 195.715L135.476 202.202C140.257 211.395 147.043 219.395 155.333 225.612" stroke="black"/>
<path id="Vector_4" d="M163.73 247.648L178.423 383.015L238.248 401.903L298.072 383.015L308.568 251.845" stroke="black"/>
<path id="Vector_5" d="M306.468 300.116L311.716 326.35L318.014 346.288L311.716 368.324L299.122 383.015" stroke="black"/>
<path id="Vector_6" d="M166.506 279.129L160.006 313.407L144.838 333.143L152.422 362.229L178.423 381.966" stroke="black"/>
<path id="Vector_7" d="M314.865 329.498L450.257 402.953L462.851 419.742L450.257 487.951H11.5451L2.09911 402.953L147.986 329.498" stroke="black"/>
<path id="Vector_8" d="M134.342 339.991L138.767 356.804C142.69 371.707 151.704 384.772 164.247 393.729C170.843 398.438 178.249 401.895 186.096 403.924L210.418 410.212C226.636 414.405 243.624 414.657 259.959 410.947L287.388 404.714C298.41 402.208 308.326 396.199 315.648 387.586C319.985 382.488 323.299 376.603 325.417 370.255L326.781 366.162C329.315 358.559 330.608 350.596 330.608 342.581V339.991" stroke="black"/>
<path id="Vector_9" d="M233 193.082L246 193" stroke="black" stroke-linecap="round"/>
<path id="Line 1" d="M233 193C240.704 198.333 240.222 198.333 246 193" stroke="black"/>
</g>
</g>
</svg>
