<svg version="1.1" xmlns="http://www.w3.org/2000/svg" viewBox="0 0 74.80468852480999 90.78713149546229" width="224.41406557442997" height="272.36139448638687">
  <!-- svg-source:excalidraw -->
  
  <defs>
    <style class="style-fonts">
      @font-face {
        font-family: "Virgil";
        src: url("https://excalidraw.com/Virgil.woff2");
      }
      @font-face {
        font-family: "Cascadia";
        src: url("https://excalidraw.com/Cascadia.woff2");
      }
    </style>
  </defs>
  <g stroke-linecap="round" transform="translate(10 12.977940608832682) rotate(0 27.40234426240511 33.904595443314804)"><path d="M39.61 3.09 C44.94 5.9, 51.4 14.4, 53.57 21.31 C55.75 28.21, 54.36 37.66, 52.66 44.53 C50.97 51.4, 48.13 58.69, 43.39 62.51 C38.65 66.34, 30.25 68.29, 24.23 67.47 C18.22 66.64, 11.44 62.72, 7.32 57.55 C3.2 52.38, -0.08 43.63, -0.5 36.45 C-0.93 29.27, 1.06 20.5, 4.77 14.47 C8.48 8.45, 15.57 1.77, 21.78 0.31 C27.99 -1.15, 38.31 4.31, 42.03 5.71 C45.75 7.12, 44.34 8.3, 44.1 8.76 M39.75 5.1 C44.6 8.33, 49.26 16.2, 51.53 22.65 C53.81 29.1, 54.83 37.2, 53.39 43.78 C51.95 50.36, 47.75 58.01, 42.88 62.13 C38.02 66.24, 30.32 69.18, 24.21 68.46 C18.11 67.75, 10.18 63.37, 6.26 57.84 C2.34 52.32, 0.58 42.68, 0.7 35.3 C0.83 27.93, 3.46 19.29, 7.01 13.59 C10.55 7.89, 16.2 2.83, 21.99 1.09 C27.77 -0.65, 38.82 2.61, 41.71 3.17 C44.6 3.73, 39.57 3.88, 39.3 4.43" stroke="#000000" stroke-width="1" fill="none"></path></g><g stroke-linecap="round"><g transform="translate(29.183894293810226 68.0110968732252) rotate(0 8.184485617734708 -0.06527068491095633)"><path d="M1.19 -1.09 C3.76 -0.87, 13.76 0.54, 16.01 0.7 M0.36 0.96 C2.76 0.88, 12.48 -1.08, 15.27 -1.06" stroke="#000000" stroke-width="1" fill="none"></path></g></g><mask></mask><g stroke-linecap="round"><g transform="translate(23.004502361819277 21.337977841430757) rotate(0 11.772999021872806 -5.802160635744002)"><path d="M0.75 -0.27 C2.02 -1.85, 4.64 -8.11, 8.5 -9.31 C12.35 -10.51, 21.57 -7.69, 23.86 -7.48 M-0.32 -1.45 C0.73 -3.43, 3.66 -10.45, 7.62 -11.25 C11.58 -12.05, 21.04 -6.9, 23.44 -6.25" stroke="#000000" stroke-width="1" fill="none"></path></g></g><mask></mask><g stroke-linecap="round"><g transform="translate(28.967849412818623 21.337977841430757) rotate(0 10.989879089115107 -4.940889537062361)"><path d="M0.44 -0.25 C1.84 -1.71, 5.61 -8.14, 9.33 -9.34 C13.06 -10.54, 20.49 -7.61, 22.77 -7.45 M-0.79 -1.43 C0.37 -2.65, 4.62 -7.11, 8.37 -7.9 C12.13 -8.7, 19.3 -6.21, 21.76 -6.21" stroke="#000000" stroke-width="1" fill="none"></path></g></g><mask></mask><g stroke-linecap="round"><g transform="translate(35.42814205140121 22.331869016597295) rotate(0 8.884352791220408 -5.033586108843764)"><path d="M0.03 0.27 C1.25 -1.38, 4.9 -9.62, 8.09 -10.28 C11.29 -10.94, 17.32 -4.81, 19.19 -3.7 M-1.42 -0.64 C0.12 -2.1, 7.15 -8.71, 10.4 -9.07 C13.66 -9.44, 16.65 -3.86, 18.13 -2.84" stroke="#000000" stroke-width="1" fill="none"></path></g></g><mask></mask><g stroke-linecap="round"><g transform="translate(40.397597927233846 22.828814604180536) rotate(0 8.964337281327744 -2.796821812763028)"><path d="M-0.93 0.09 C0.33 -1.25, 5.23 -9.25, 8.53 -8.74 C11.83 -8.22, 17.13 1.5, 18.86 3.17 M0.79 -0.91 C1.81 -2.08, 4.78 -8.14, 7.67 -7.76 C10.56 -7.38, 16.22 -0.24, 18.15 1.36" stroke="#000000" stroke-width="1" fill="none"></path></g></g><mask></mask><g transform="translate(18.238994648092785 47.7846622058662) rotate(0 -0.24847279379162046 -0.2484727937916773)" stroke="none"><path fill="#000000" d="M 2.12,-0.66 Q 2.12,-0.66 2.15,-0.13 2.18,0.40 1.96,0.88 1.74,1.36 1.32,1.69 0.91,2.02 0.38,2.12 -0.13,2.21 -0.64,2.05 -1.14,1.90 -1.52,1.52 -1.90,1.14 -2.05,0.64 -2.21,0.13 -2.12,-0.38 -2.02,-0.91 -1.69,-1.32 -1.36,-1.74 -0.88,-1.96 -0.39,-2.18 0.13,-2.15 0.66,-2.11 1.11,-1.84 1.57,-1.56 1.84,-1.11 L 2.12,-0.66 Z"></path></g><g transform="translate(55.01296812925534 48.77855338103274) rotate(0 0.00005476232570345019 0.00005476232570345019)" stroke="none"><path fill="#000000" d="M 1.57,-1.57 Q 1.57,-1.57 1.77,-1.27 1.98,-0.98 2.09,-0.64 2.20,-0.29 2.19,0.05 2.18,0.41 2.05,0.75 1.93,1.09 1.70,1.37 1.48,1.65 1.18,1.84 0.87,2.04 0.52,2.12 0.18,2.21 -0.17,2.18 -0.53,2.15 -0.86,2.01 -1.19,1.87 -1.46,1.63 -1.73,1.39 -1.90,1.07 -2.08,0.76 -2.15,0.41 -2.21,0.05 -2.17,-0.29 -2.12,-0.65 -1.96,-0.97 -1.80,-1.29 -1.54,-1.54 -1.29,-1.80 -0.97,-1.96 -0.65,-2.12 -0.29,-2.17 0.06,-2.21 0.41,-2.15 0.76,-2.08 1.07,-1.90 1.39,-1.73 1.63,-1.46 1.87,-1.19 2.01,-0.86 2.15,-0.53 2.18,-0.17 2.21,0.18 2.12,0.52 2.03,0.87 1.84,1.18 1.65,1.48 1.37,1.70 1.09,1.93 0.75,2.05 0.41,2.18 0.05,2.19 -0.30,2.20 -0.64,2.09 -0.98,1.98 -1.27,1.77 -1.57,1.56 -1.57,1.57 -1.57,1.57 -1.73,1.35 -1.90,1.14 -2.01,0.90 -2.12,0.66 -2.16,0.39 -2.21,0.13 -2.20,-0.13 -2.18,-0.40 -2.10,-0.65 -2.02,-0.91 -1.88,-1.14 -1.74,-1.36 -1.55,-1.55 -1.36,-1.74 -1.14,-1.88 -0.91,-2.02 -0.65,-2.10 -0.40,-2.18 -0.13,-2.20 0.13,-2.21 0.39,-2.16 0.66,-2.12 0.90,-2.01 1.14,-1.90 1.35,-1.73 1.57,-1.57 1.57,-1.57 L 1.57,-1.57 Z"></path></g></svg>